{
  "asset": {
    "version": "2.0",
    "generator": "SimObliterator Mesh Exporter"
  },
  "scene": 0,
  "scenes": [
    {
      "nodes": [
        29
      ]
    }
  ],
  "nodes": [
    {
      "name": "ROOT",
      "translation": [
        -5.888939995202236e-05,
        3.013619899749756,
        0.008076380006968975
      ],
      "rotation": [
        -0.026299800723791122,
        0.7068989872932434,
        -0.026278899982571602,
        0.7063360214233398
      ],
      "children": [
        1
      ]
    },
    {
      "name": "PELVIS",
      "translation": [
        -0.03667780011892319,
        -1.7248899197852552e-08,
        -2.6276600253311022e-12
      ],
      "rotation": [
        0.4999989867210388,
        -0.5,
        -0.5,
        0.5000010132789612
      ],
      "children": [
        2,
        17,
        23
      ]
    },
    {
      "name": "SPINE",
      "translation": [
        0.3810659945011139,
        5.290480089570337e-07,
        -0.0003347629972267896
      ],
      "rotation": [
        2.1010400814702734e-06,
        0.03152310103178024,
        -7.149320140342752e-07,
        0.9995030164718628
      ],
      "children": [
        3
      ]
    },
    {
      "name": "SPINE1",
      "translation": [
        0.4210590124130249,
        -9.279549906260343e-10,
        -0.000335279997671023
      ],
      "rotation": [
        -3.3045200690390297e-12,
        -7.522350103927877e-11,
        8.185829740285124e-15,
        1.0
      ],
      "children": [
        4
      ]
    },
    {
      "name": "SPINE2",
      "translation": [
        0.4210590124130249,
        -9.333519512821908e-10,
        -0.00033527699997648597
      ],
      "rotation": [
        -3.3045200690390297e-12,
        -7.522350103927877e-11,
        8.185829740285124e-15,
        1.0
      ],
      "children": [
        5
      ]
    },
    {
      "name": "NECK",
      "translation": [
        0.4210970103740692,
        -8.791690153664433e-10,
        -0.00031510498956777155
      ],
      "rotation": [
        -1.2814999929278148e-11,
        0.060416098684072495,
        -1.6757300613789994e-07,
        0.9981729984283447
      ],
      "children": [
        6,
        11,
        16
      ]
    },
    {
      "name": "R_ARM",
      "translation": [
        4.5747100330117973e-07,
        -0.13026300072669983,
        0.0003177490143571049
      ],
      "rotation": [
        0.6182270050048828,
        0.7836430072784424,
        0.03766519948840141,
        0.047745298594236374
      ],
      "children": [
        7
      ]
    },
    {
      "name": "R_ARM1",
      "translation": [
        0.37631601095199585,
        5.230170074810303e-08,
        1.8567499759925e-09
      ],
      "rotation": [
        0.00849222019314766,
        0.017303800210356712,
        -0.5793799757957458,
        0.8148300051689148
      ],
      "children": [
        8
      ]
    },
    {
      "name": "R_ARM2",
      "translation": [
        0.8815360069274902,
        -1.639929969599052e-08,
        5.118950152649404e-09
      ],
      "rotation": [
        1.0075500156414563e-10,
        -0.05004119873046875,
        3.821420069272108e-09,
        0.9987469911575317
      ],
      "children": [
        9
      ]
    },
    {
      "name": "R_HAND",
      "translation": [
        0.8204740285873413,
        -4.879349901898422e-08,
        -3.3422999923260477e-09
      ],
      "rotation": [
        -0.7066050171852112,
        -0.017647499218583107,
        0.017661500722169876,
        0.7071679830551147
      ],
      "children": [
        10
      ]
    },
    {
      "name": "R_FINGER0",
      "translation": [
        0.3020719885826111,
        1.5425299926263847e-10,
        6.475490010870999e-08
      ],
      "rotation": [
        -0.000394578994018957,
        0.13342300057411194,
        -5.311740096658468e-05,
        0.9910590052604675
      ]
    },
    {
      "name": "L_ARM",
      "translation": [
        4.565519873267476e-07,
        0.13026300072669983,
        0.00031702700653113425
      ],
      "rotation": [
        -0.6182270050048828,
        0.7836430072784424,
        -0.037667401134967804,
        0.047743599861860275
      ],
      "children": [
        12
      ]
    },
    {
      "name": "L_ARM1",
      "translation": [
        0.37631601095199585,
        -5.4945299865494235e-08,
        1.6080899944981297e-09
      ],
      "rotation": [
        -0.00849215965718031,
        0.01730390079319477,
        0.5793799757957458,
        0.8148300051689148
      ],
      "children": [
        13
      ]
    },
    {
      "name": "L_ARM2",
      "translation": [
        0.8815360069274902,
        2.635309925835827e-08,
        9.202819839515541e-09
      ],
      "rotation": [
        -8.573580040360795e-11,
        -0.05004119873046875,
        -5.2387698623590495e-09,
        0.9987469911575317
      ],
      "children": [
        14
      ]
    },
    {
      "name": "L_HAND",
      "translation": [
        0.8204740285873413,
        1.8187700234761905e-08,
        3.0226099401176043e-09
      ],
      "rotation": [
        0.7058209776878357,
        -0.03766020014882088,
        -0.03769019991159439,
        0.7063829898834229
      ],
      "children": [
        15
      ]
    },
    {
      "name": "L_FINGER0",
      "translation": [
        0.3020719885826111,
        8.545010032889877e-09,
        -1.6041200368022146e-08
      ],
      "rotation": [
        0.00039182600448839366,
        0.1773419976234436,
        7.060520147206262e-05,
        0.9841489791870117
      ]
    },
    {
      "name": "HEAD",
      "translation": [
        0.3986150026321411,
        -1.0225000100089199e-12,
        -1.185760023503235e-08
      ],
      "rotation": [
        2.9477999902161045e-12,
        0.06687819957733154,
        -1.854890001595777e-07,
        0.9977610111236572
      ]
    },
    {
      "name": "R_LEG",
      "translation": [
        2.4463199110869027e-07,
        -0.24122799932956696,
        -4.6249098772932484e-07
      ],
      "rotation": [
        0.016540199518203735,
        -5.55190013074025e-07,
        0.9998630285263062,
        1.004839987217565e-06
      ],
      "children": [
        18
      ]
    },
    {
      "name": "R_LEG1",
      "translation": [
        1.4473700523376465,
        1.0367499747587772e-08,
        8.036259657728806e-09
      ],
      "rotation": [
        -2.118480044166482e-11,
        -0.029835600405931473,
        -8.864029844325716e-13,
        0.9995549917221069
      ],
      "children": [
        19
      ]
    },
    {
      "name": "R_FOOT",
      "translation": [
        1.315790057182312,
        1.1255499643425537e-08,
        -6.117490070067788e-09
      ],
      "rotation": [
        -6.651770263488288e-07,
        0.008605030365288258,
        3.733750020273874e-07,
        0.9999629855155945
      ],
      "children": [
        20
      ]
    },
    {
      "name": "R_TOE0",
      "translation": [
        0.25383898615837097,
        -4.7282600057485524e-09,
        0.33998700976371765
      ],
      "rotation": [
        1.9756899241607506e-11,
        0.7071070075035095,
        1.9753799290755936e-11,
        0.7071070075035095
      ],
      "children": [
        21
      ]
    },
    {
      "name": "R_TOE01",
      "translation": [
        0.2510879933834076,
        -2.9206699281303372e-09,
        -5.783969969641589e-10
      ],
      "rotation": [
        -4.944089808508936e-15,
        -1.0961699857005552e-14,
        -5.3064800817348434e-12,
        1.0
      ],
      "children": [
        22
      ]
    },
    {
      "name": "R_TOE02",
      "translation": [
        0.05692899972200394,
        -2.804700027780882e-09,
        5.13380005173758e-10
      ],
      "rotation": [
        7.98796009094944e-16,
        -2.9964400372842898e-15,
        1.3757299986705274e-11,
        1.0
      ]
    },
    {
      "name": "L_LEG",
      "translation": [
        -4.2620499129952805e-07,
        0.24122799932956696,
        2.0608899831131566e-07
      ],
      "rotation": [
        0.01376350037753582,
        -2.4152500373020303e-06,
        0.999904990196228,
        3.0057898925406334e-07
      ],
      "children": [
        24
      ]
    },
    {
      "name": "L_LEG1",
      "translation": [
        1.4473700523376465,
        -3.4022099026920216e-10,
        -3.6549598902979596e-09
      ],
      "rotation": [
        -2.2129700849582434e-11,
        -0.03575040027499199,
        4.920609818041821e-13,
        0.999360978603363
      ],
      "children": [
        25
      ]
    },
    {
      "name": "L_FOOT",
      "translation": [
        1.315790057182312,
        6.722190026842156e-10,
        1.8508700128094802e-09
      ],
      "rotation": [
        1.1835800250992179e-06,
        0.011630900204181671,
        -5.243890086603642e-07,
        0.9999319911003113
      ],
      "children": [
        26
      ]
    },
    {
      "name": "L_TOE0",
      "translation": [
        0.25383898615837097,
        -4.822930055325969e-09,
        0.33998700976371765
      ],
      "rotation": [
        -1.919800082794687e-11,
        0.7071070075035095,
        -1.919559997065612e-11,
        0.7071070075035095
      ],
      "children": [
        27
      ]
    },
    {
      "name": "L_TOE01",
      "translation": [
        0.2510879933834076,
        -3.0062399236641113e-09,
        -2.910779950404674e-10
      ],
      "rotation": [
        -2.9513600967984686e-15,
        -1.259230011387523e-14,
        -1.673050066541837e-11,
        1.0
      ],
      "children": [
        28
      ]
    },
    {
      "name": "L_TOE02",
      "translation": [
        0.05692899972200394,
        -3.0593299005232666e-09,
        3.056760122799318e-10
      ],
      "rotation": [
        7.812810221069502e-17,
        5.385870006544783e-15,
        1.0429599892058938e-11,
        1.0
      ]
    },
    {
      "name": "xskin-b007mafit_01-PELVIS-BODY",
      "mesh": 0,
      "skin": 0
    }
  ],
  "meshes": [
    {
      "name": "xskin-b007mafit_01-PELVIS-BODY",
      "primitives": [
        {
          "attributes": {
            "POSITION": 1,
            "NORMAL": 2,
            "TEXCOORD_0": 3,
            "JOINTS_0": 5,
            "WEIGHTS_0": 6
          },
          "indices": 4,
          "material": 0
        }
      ]
    }
  ],
  "accessors": [
    {
      "bufferView": 0,
      "componentType": 5126,
      "count": 29,
      "type": "MAT4"
    },
    {
      "bufferView": 1,
      "componentType": 5126,
      "count": 558,
      "type": "VEC3",
      "min": [
        -1.60365,
        -0.559061,
        -0.348914
      ],
      "max": [
        0.309925,
        0.559813,
        0.369459
      ]
    },
    {
      "bufferView": 2,
      "componentType": 5126,
      "count": 558,
      "type": "VEC3"
    },
    {
      "bufferView": 3,
      "componentType": 5126,
      "count": 432,
      "type": "VEC2"
    },
    {
      "bufferView": 4,
      "componentType": 5123,
      "count": 1608,
      "type": "SCALAR"
    },
    {
      "bufferView": 5,
      "componentType": 5121,
      "count": 558,
      "type": "VEC4"
    },
    {
      "bufferView": 6,
      "componentType": 5126,
      "count": 558,
      "type": "VEC4"
    }
  ],
  "bufferViews": [
    {
      "buffer": 0,
      "byteOffset": 0,
      "byteLength": 1856,
      "target": 34962
    },
    {
      "buffer": 0,
      "byteOffset": 1856,
      "byteLength": 6696,
      "target": 34962
    },
    {
      "buffer": 0,
      "byteOffset": 8552,
      "byteLength": 6696,
      "target": 34962
    },
    {
      "buffer": 0,
      "byteOffset": 15248,
      "byteLength": 3456,
      "target": 34962
    },
    {
      "buffer": 0,
      "byteOffset": 18704,
      "byteLength": 3216,
      "target": 34963
    },
    {
      "buffer": 0,
      "byteOffset": 21920,
      "byteLength": 2232,
      "target": 34962
    },
    {
      "buffer": 0,
      "byteOffset": 24152,
      "byteLength": 8928,
      "target": 34962
    }
  ],
  "materials": [
    {
      "name": "b007mafitlgt_lthr",
      "pbrMetallicRoughness": {
        "baseColorTexture": {
          "index": 0
        },
        "metallicFactor": 0.0,
        "roughnessFactor": 0.8
      }
    }
  ],
  "skins": [
    {
      "name": "adult",
      "joints": [
        0,
        1,
        2,
        3,
        4,
        5,
        6,
        7,
        8,
        9,
        10,
        11,
        12,
        13,
        14,
        15,
        16,
        17,
        18,
        19,
        20,
        21,
        22,
        23,
        24,
        25,
        26,
        27,
        28
      ],
      "inverseBindMatrices": 0,
      "skeleton": 0
    }
  ],
  "images": [
    {
      "uri": "data:image/bmp;base64,",
      "name": "b007mafitlgt_lthr"
    }
  ],
  "textures": [
    {
      "source": 0,
      "sampler": 0
    }
  ],
  "samplers": [
    {
      "magFilter": 9729,
      "minFilter": 9987,
      "wrapS": 10497,
      "wrapT": 10497
    }
  ],
  "buffers": [
    {
      "uri": "data:application/octet-stream;base64,",
      "byteLength": 33080
    }
  ]
}